<svg width="448" height="461" viewBox="0 0 448 461" fill="none" xmlns="http://www.w3.org/2000/svg">
<path d="M223.999 461C347.71 461 447.998 360.712 447.998 237C447.998 113.288 347.71 13 223.999 13C100.288 13 0 113.288 0 237C0 360.712 100.288 461 223.999 461Z" fill="#F5EFFF"/>
<path d="M400.404 305.398L394.691 303.4C395.154 300.435 395.369 297.473 395.357 294.533L401.3 293.407L397.482 273.284L391.528 274.412C390.453 271.648 389.162 268.97 387.669 266.409L392.262 262.453L378.895 246.932L374.312 250.879C372.02 249.038 369.566 247.361 366.961 245.877L368.957 240.163L349.621 233.407L347.625 239.121C344.662 238.658 341.697 238.442 338.759 238.455L337.632 232.513L317.508 236.33L318.637 242.286C315.872 243.361 313.196 244.651 310.632 246.144L306.675 241.552L291.156 254.918L295.103 259.501C293.262 261.792 291.585 264.245 290.101 266.852L284.389 264.855L277.631 284.192L283.343 286.19C282.88 289.155 282.665 292.117 282.677 295.057L276.734 296.183L280.552 316.306L286.507 315.178C287.581 317.942 288.872 320.62 290.365 323.181L285.772 327.137L299.139 342.658L303.722 338.711C306.014 340.552 308.468 342.229 311.073 343.713L309.077 349.426L328.414 356.183L330.409 350.469C333.372 350.932 336.337 351.147 339.275 351.135L340.402 357.077L360.526 353.26L359.398 347.304C362.162 346.229 364.838 344.939 367.402 343.446L371.359 348.038L386.878 334.672L382.931 330.089C384.772 327.798 386.447 325.345 387.933 322.737L393.646 324.735L400.404 305.398ZM375.627 308.95C368.227 328.133 346.905 338.413 327.29 332.253C305.627 325.45 294.239 301.826 302.408 280.643C309.807 261.459 331.129 251.18 350.744 257.339C372.407 264.142 383.795 287.767 375.627 308.95Z" fill="#D4BAFF"/>
<path d="M339.026 339.852C334.063 339.852 329.043 339.032 324.156 337.323C300.706 329.129 288.294 303.383 296.487 279.932C300.067 269.687 307.222 261.08 316.631 255.696C325.948 250.367 336.854 248.526 347.344 250.514C347.476 250.538 347.564 250.668 347.539 250.8C347.515 250.932 347.388 251.02 347.253 250.996C325.794 246.932 304.168 259.442 296.95 280.096C288.845 303.292 301.122 328.757 324.317 336.865C343.482 343.563 364.75 336.473 376.033 319.628C376.109 319.515 376.261 319.486 376.374 319.562C376.486 319.638 376.516 319.79 376.44 319.902C367.909 332.637 353.734 339.859 339.026 339.859V339.852Z" fill="#F2E6DC"/>
<path d="M229.431 371.414L209.583 416.163L288.224 458.091C288.224 458.091 295.915 386.267 229.431 371.414Z" fill="white"/>
<path d="M220.852 298.386L222.826 374.509C223.08 374.479 268.361 399.538 268.046 397.381C267.837 395.957 270.651 333.898 272.585 291.974C272.85 286.26 272.076 280.71 270.438 275.513L239.184 280.801L220.852 298.383V298.386Z" fill="#312A63"/>
<path d="M243.488 406.579L272.66 433.207L295.138 419.941L271.149 386.728L243.488 406.579Z" fill="#BC8271"/>
<path d="M245.938 460.153H359.145C359.145 460.153 333.325 423.784 288.225 407.03L257.674 422.335C257.674 422.335 249.927 441.619 245.936 460.153H245.938Z" fill="#E6D0BE"/>
<path d="M288.509 427.77C288.452 427.77 288.398 427.75 288.352 427.713C288.249 427.628 288.234 427.473 288.323 427.368L299.987 413.424C300.073 413.321 300.227 413.306 300.333 413.392C300.436 413.478 300.45 413.632 300.362 413.737L288.697 427.682C288.648 427.74 288.58 427.77 288.509 427.77Z" fill="#363E44"/>
<path d="M298.134 432.174C298.077 432.174 298.023 432.154 297.977 432.118C297.874 432.032 297.859 431.878 297.948 431.772L309.612 417.828C309.698 417.725 309.852 417.711 309.958 417.796C310.061 417.882 310.075 418.036 309.987 418.141L298.322 432.086C298.273 432.144 298.205 432.174 298.134 432.174Z" fill="#363E44"/>
<path d="M149.538 310.313L245.954 415.311L279.74 388.693L226.028 301.152C226.028 301.152 208.585 275.863 185.333 287.607C162.082 299.35 149.535 310.315 149.535 310.315L149.538 310.313Z" fill="#312A63"/>
<path d="M233.514 243.147C165.515 231.472 99.3356 254.031 34.5199 302.266C34.5199 302.266 29.9533 332.635 65.6777 340.985C101.405 349.333 220.571 287.609 220.571 287.609L220.85 298.388L270.433 275.516C265.252 259.082 251.339 246.207 233.512 243.147H233.514Z" fill="#312A63"/>
<path d="M163.389 314.746C163.296 314.746 163.208 314.692 163.166 314.604C163.11 314.482 163.164 314.335 163.286 314.278L233.234 282C233.357 281.944 233.504 281.998 233.56 282.12C233.616 282.243 233.562 282.39 233.44 282.446L163.492 314.724C163.458 314.739 163.423 314.746 163.389 314.746Z" fill="#363E44"/>
<path d="M267.26 368.594C267.176 368.594 267.096 368.553 267.052 368.477L223.825 297.832C223.754 297.717 223.791 297.565 223.906 297.494C224.021 297.423 224.17 297.46 224.244 297.575L267.47 368.22C267.541 368.335 267.505 368.486 267.39 368.557C267.35 368.582 267.306 368.594 267.262 368.594H267.26Z" fill="#363E44"/>
<path d="M123.242 112.879C123.242 112.879 114.552 114.118 108.213 108.027C101.874 101.936 85.5615 98.2446 72.2682 108.412C45.8214 128.635 46.9306 93.2138 23.4636 105.709V114.444C25.9807 113.508 29.9621 113.545 34.9155 118.735C42.2294 126.403 46.8914 125.144 48.2014 124.542C48.4462 124.415 48.5809 124.334 48.5809 124.334C48.5809 124.334 48.4511 124.424 48.2014 124.542C46.4507 125.448 38.985 128.78 33.2236 123.178C29.536 119.594 26.0444 119.506 23.4636 120.287V155.963C23.4636 155.963 28.537 169.611 44.5726 163.829C60.6082 158.049 64.7242 139.199 81.2642 146.438C97.8018 153.677 94.2832 155.18 109.753 147.774C125.221 140.366 123.245 112.882 123.245 112.882L123.242 112.879Z" fill="#363E44"/>
<path d="M49.4874 165.802C47.7392 165.802 45.9444 165.393 44.2524 164.585C41.2676 163.158 39.0444 160.69 38.1555 157.816C38.1164 157.686 38.1874 157.549 38.3171 157.51C38.4469 157.471 38.584 157.542 38.6232 157.672C39.4704 160.416 41.6006 162.773 44.463 164.142C47.3254 165.51 50.4987 165.684 53.1676 164.622C56.8968 163.136 59.4825 159.789 61.98 156.55C62.2493 156.203 62.5162 155.855 62.7831 155.512C65.3933 152.171 69 148.291 73.7551 147.923C76.2697 147.73 78.6963 148.572 81.0395 149.387C83.0057 150.07 85.038 150.778 87.1022 150.864C89.8813 150.976 92.6971 149.769 94.8347 147.551C96.9723 145.333 98.0741 142.471 97.8587 139.703C97.8489 139.568 97.9493 139.451 98.0839 139.438C98.2162 139.429 98.3361 139.529 98.3484 139.664C98.5761 142.572 97.4253 145.571 95.1897 147.892C92.9542 150.212 89.9963 151.478 87.0826 151.353C84.945 151.265 82.8784 150.545 80.8779 149.85C78.5812 149.052 76.2036 148.225 73.7918 148.411C69.2277 148.763 65.7165 152.553 63.17 155.814C62.9031 156.156 62.6362 156.501 62.3669 156.849C59.8277 160.139 57.2004 163.54 53.3464 165.075C52.1343 165.557 50.8219 165.797 49.485 165.797L49.4874 165.802Z" fill="#363E44"/>
<path d="M58.4852 112.184C53.6076 112.184 48.7056 109.3 46.639 104.845C46.5827 104.722 46.6366 104.575 46.759 104.519C46.8814 104.463 47.0284 104.517 47.0847 104.639C49.5112 109.868 55.9974 112.847 61.5458 111.278C63.7079 110.666 65.6839 109.459 67.5913 108.294C68.4728 107.755 69.3812 107.2 70.3043 106.705C79.5966 101.721 91.9275 102.725 100.289 109.148C100.397 109.232 100.417 109.383 100.333 109.491C100.25 109.599 100.098 109.618 99.9906 109.535C91.7757 103.224 79.6652 102.237 70.5345 107.136C69.6236 107.623 68.7201 108.176 67.846 108.71C65.9092 109.895 63.9038 111.119 61.6781 111.748C60.635 112.042 59.5601 112.184 58.4852 112.184Z" fill="#363E44"/>
<path d="M124.699 159.924C118.377 161.227 108.852 145.955 108.852 145.955L108.228 126.248C111.884 117.937 121.585 114.162 129.898 117.817C138.211 121.472 141.986 131.171 138.331 139.483C138.331 139.483 131.137 158.595 124.697 159.922L124.699 159.924Z" fill="#FFCBC6"/>
<path d="M91.5706 164.125L109.389 187.223L110.828 169.827L126.543 134.099L108.304 126.079L91.5706 164.125Z" fill="#FFCBC6"/>
<path d="M134.863 142.682C134.863 142.682 137.14 148.962 136.401 150.029C135.519 151.305 130.443 150.088 130.443 150.088C130.443 150.088 134.971 142.741 134.863 142.682Z" fill="#FFCBC6"/>
<path d="M121.563 136.065C121.563 136.065 124.68 135.818 127.717 137.154C128.363 137.438 124.869 142.073 124.384 141.51C122.254 139.037 121.563 136.065 121.563 136.065Z" fill="white"/>
<path d="M132.494 147.331C135.259 145.921 136.356 142.537 134.945 139.773C133.534 137.009 130.149 135.912 127.385 137.323C124.621 138.734 123.524 142.118 124.935 144.881C126.345 147.645 129.73 148.742 132.494 147.331Z" fill="#363E44"/>
<path d="M126.507 151.495C125.655 151.495 124.844 151.069 124.372 150.347C123.843 149.542 123.818 148.482 124.31 147.649C124.379 147.532 124.528 147.495 124.646 147.564C124.763 147.632 124.8 147.782 124.732 147.899C124.335 148.575 124.352 149.429 124.781 150.08C125.224 150.756 126.029 151.109 126.832 150.981C126.965 150.959 127.092 151.052 127.112 151.184C127.134 151.319 127.041 151.444 126.908 151.464C126.774 151.486 126.639 151.495 126.507 151.495Z" fill="#363E44"/>
<path d="M119.709 158.98C119.662 158.98 119.616 158.967 119.572 158.938C114.158 155.31 108.587 146.436 108.531 146.348C108.46 146.232 108.494 146.081 108.609 146.01C108.724 145.939 108.876 145.973 108.947 146.088C109.001 146.176 114.518 154.962 119.846 158.532C119.958 158.608 119.988 158.759 119.912 158.872C119.865 158.943 119.787 158.98 119.709 158.98Z" fill="#363E44"/>
<path d="M101.14 133.328C99.0169 128.574 105.082 119.205 111.872 115.67C120.623 111.112 127.315 109.944 134.888 114.316C146.325 120.919 143.967 136.795 143.967 136.795C143.967 136.795 132.126 131.83 128.091 130.268C122.418 128.07 119.382 146.651 112.868 136.053C112.151 134.888 103.157 157.692 93.3069 151.672C79.8178 143.427 103.395 138.379 101.142 133.333L101.14 133.328Z" fill="#363E44"/>
<path d="M119.615 137.691C120.516 134.719 118.836 131.58 115.863 130.68C112.89 129.779 109.75 131.459 108.85 134.431C107.949 137.404 109.629 140.543 112.602 141.443C115.575 142.344 118.715 140.664 119.615 137.691Z" fill="#FFCBC6"/>
<path d="M247.338 241.478H189.557C185.637 241.478 182.458 238.3 182.458 234.381H247.335V241.478H247.338Z" fill="#363E44"/>
<path d="M247.769 241.275L265.269 186.22C266.457 182.484 264.39 178.493 260.654 177.309L241.004 239.128L247.767 241.277L247.769 241.275Z" fill="#363E44"/>
<path d="M241.204 231.661C241.18 231.661 241.155 231.656 241.131 231.648C241.001 231.607 240.93 231.47 240.972 231.34L258.171 177.232C258.212 177.102 258.349 177.032 258.479 177.073C258.609 177.115 258.68 177.252 258.638 177.382L241.44 231.489C241.405 231.594 241.31 231.661 241.207 231.661H241.204Z" fill="#D3BBA3"/>
<path d="M26.2556 307.218L132.21 260.073L116.218 188.893L119.621 173.144L77.8467 157.418L70.8683 172.192C70.8683 172.192 36.3167 204.247 26.2556 307.216V307.218Z" fill="#8646EE"/>
<path d="M213.462 220.292C209.638 218.847 194.704 210.303 187.98 214.663C181.207 219.055 178.548 227.54 178.732 235.58C178.754 235.604 178.781 235.629 178.803 235.653C179.787 237.653 181.57 240.493 184.746 242.388C188.367 244.547 190.331 243.411 194.51 245.098C201.562 247.948 202.843 254.185 205.279 253.04C206.952 252.254 206.364 248.587 204.954 245.38C203.504 242.087 201.175 240.564 201.535 240.099C201.932 239.587 204.097 241.438 207.001 243.495C208.35 244.449 210.433 249.343 212.88 248.604C214.829 248.014 213.945 242.388 210.688 238.62C208.386 235.954 204.998 235.435 205.22 234.833C205.387 234.38 207.4 234.74 209.04 235.565C211.748 236.924 213.932 241.908 216.17 241.184C218.362 240.474 217.502 235.575 214.731 231.92C212.392 228.84 208.585 228.439 208.859 227.69C209.05 227.163 210.793 226.99 214.385 227.719C217.382 228.329 222.818 231.44 223.93 228.414C224.863 225.868 219.234 222.47 213.462 220.289V220.292Z" fill="#FFCBC6"/>
<path d="M115.058 225.335C106.576 228.417 100.935 236.655 101.515 245.62C101.895 251.498 104.96 257.481 114.27 260.869C136.931 269.116 186.073 235.629 186.073 235.629L191.791 213.479C165.944 212.957 138.407 216.852 115.06 225.335H115.058Z" fill="#FFCBC6"/>
<path d="M77.2153 185.512L100.215 196.078L89.8449 231.499C89.8449 231.499 124.928 218.975 151.798 213.435L155.711 262.174L63.5695 283.271C44.4585 288.26 26.442 272.091 29.5517 252.682C32.4973 234.285 40.9644 207.378 61.6155 188.033C65.8099 184.107 71.9851 183.108 77.2128 185.512H77.2153Z" fill="#8646EE"/>
<path d="M56.4962 284.435C48.4111 284.435 40.6884 280.895 35.2966 274.439C35.2109 274.336 35.2232 274.182 35.3285 274.094C35.4313 274.008 35.5856 274.021 35.6737 274.126C42.5174 282.32 53.1858 285.732 63.5114 283.037L84.9093 278.136C85.0415 278.104 85.1737 278.187 85.2031 278.32C85.2325 278.452 85.1517 278.581 85.0195 278.613L63.6264 283.512C61.2513 284.131 58.8591 284.435 56.4962 284.435Z" fill="#363E44"/>
<path d="M89.8453 231.744C89.784 231.744 89.7228 231.722 89.6763 231.678C89.6102 231.615 89.5833 231.519 89.6102 231.431L94.4975 214.737C94.5367 214.608 94.6714 214.532 94.8011 214.571C94.9309 214.61 95.0044 214.745 94.9676 214.875L90.215 231.108C92.8178 230.19 106.322 225.475 122.032 220.841C122.164 220.801 122.298 220.877 122.335 221.007C122.374 221.137 122.298 221.274 122.169 221.311C104.764 226.444 90.0705 231.676 89.9261 231.727C89.8991 231.737 89.8722 231.742 89.8428 231.742L89.8453 231.744Z" fill="#363E44"/>
<path d="M96.415 209.303C96.3905 209.303 96.3636 209.298 96.3391 209.291C96.2093 209.249 96.1408 209.11 96.1824 208.982C98.1706 202.945 96.508 197.545 91.2363 192.93C87.2794 189.464 82.6615 187.77 82.6174 187.752C82.4901 187.706 82.4239 187.566 82.4705 187.439C82.517 187.312 82.6566 187.246 82.7839 187.292C82.8304 187.309 87.5218 189.03 91.5497 192.553C96.9145 197.246 98.6775 202.979 96.6501 209.136C96.6158 209.239 96.5203 209.305 96.4174 209.305L96.415 209.303Z" fill="#363E44"/>
<path d="M3.34837 333.663C3.2137 333.663 3.10352 333.553 3.10352 333.418C3.10352 333.284 3.21125 333.174 3.34837 333.174C3.48304 333.174 3.59323 333.284 3.59323 333.418C3.59323 333.553 3.48304 333.663 3.34837 333.663Z" fill="white"/>
<path d="M33.0341 356.595C28.1566 356.595 24.1899 352.629 24.1899 347.752V333.421C24.1899 333.286 24.3001 333.176 24.4348 333.176H41.6335C41.7681 333.176 41.8783 333.286 41.8783 333.421V347.752C41.8783 352.629 37.9116 356.595 33.0341 356.595ZM24.6797 333.666V347.752C24.6797 352.357 28.4284 356.105 33.0341 356.105C37.6399 356.105 41.3886 352.357 41.3886 347.752V333.666H24.6797Z" fill="white"/>
<path d="M158.682 356.595C153.804 356.595 149.837 352.629 149.837 347.752V333.421C149.837 333.286 149.948 333.176 150.082 333.176H167.281C167.416 333.176 167.526 333.286 167.526 333.421V347.752C167.526 352.629 163.559 356.595 158.682 356.595ZM150.327 333.666V347.752C150.327 352.357 154.076 356.105 158.682 356.105C163.287 356.105 167.036 352.357 167.036 347.752V333.666H150.327Z" fill="white"/>
<path d="M0.410871 347.632C0.276201 347.632 0.166016 347.522 0.166016 347.387C0.166016 347.252 0.276201 347.142 0.410871 347.142C7.66594 347.142 13.567 341.242 13.567 333.989C13.567 333.854 13.6771 333.744 13.8118 333.744C13.9465 333.744 14.0567 333.854 14.0567 333.989C14.0567 341.511 7.93528 347.632 0.410871 347.632Z" fill="white"/>
<path d="M13.8118 459.86C13.6771 459.86 13.567 459.749 13.567 459.615C13.567 452.361 7.66594 446.461 0.410871 446.461C0.276201 446.461 0.166016 446.351 0.166016 446.216C0.166016 446.082 0.276201 445.972 0.410871 445.972C7.93528 445.972 14.0567 452.092 14.0567 459.615C14.0567 459.749 13.9465 459.86 13.8118 459.86Z" fill="white"/>
<path d="M177.905 459.86C177.77 459.86 177.66 459.749 177.66 459.615C177.66 452.092 183.781 445.972 191.305 445.972C191.44 445.972 191.55 446.082 191.55 446.216C191.55 446.351 191.44 446.461 191.305 446.461C184.05 446.461 178.149 452.361 178.149 459.615C178.149 459.749 178.039 459.86 177.905 459.86Z" fill="white"/>
<path d="M138.634 400.833H139.983C140.105 401.49 140.277 402.131 140.495 402.748L139.327 403.422L141.611 407.378L142.783 406.703C143.212 407.206 143.681 407.675 144.184 408.105L143.509 409.276L147.466 411.559L148.14 410.391C148.759 410.61 149.398 410.782 150.056 410.903V412.252H154.625V410.903C155.283 410.782 155.924 410.61 156.541 410.391L157.215 411.559L161.172 409.276L160.496 408.105C161 407.675 161.468 407.206 161.898 406.703L163.07 407.378L165.354 403.422L164.185 402.748C164.404 402.13 164.576 401.49 164.698 400.833H166.047V396.264H164.698C164.576 395.607 164.404 394.966 164.185 394.349L165.354 393.675L163.07 389.719L161.898 390.394C161.468 389.891 161 389.422 160.496 388.992L161.172 387.821L157.215 385.538L156.541 386.706C155.922 386.487 155.283 386.315 154.625 386.194V384.844H150.056V386.194C149.398 386.315 148.757 386.487 148.14 386.706L147.466 385.538L143.509 387.821L144.184 388.992C143.681 389.422 143.212 389.891 142.783 390.394L141.611 389.719L139.327 393.675L140.495 394.349C140.277 394.967 140.105 395.607 139.983 396.264H138.634V400.833ZM152.588 390.983C156.553 391.11 159.782 394.337 159.908 398.301C160.047 402.678 156.47 406.254 152.093 406.114C148.128 405.987 144.899 402.76 144.773 398.796C144.634 394.419 148.21 390.843 152.588 390.983Z" fill="white"/>
<path d="M152.341 408.691C147.719 408.691 143.681 405.572 142.522 401.105C142.501 401.026 142.548 400.943 142.629 400.922C142.709 400.901 142.791 400.949 142.812 401.03C143.937 405.365 147.856 408.393 152.342 408.393C157.77 408.393 162.187 403.977 162.187 398.55C162.187 393.718 158.588 389.534 153.816 388.817C153.734 388.805 153.678 388.729 153.69 388.646C153.702 388.564 153.779 388.507 153.861 388.52C156.238 388.877 158.42 390.079 160.005 391.903C161.606 393.747 162.486 396.107 162.486 398.55C162.486 404.143 157.936 408.693 152.342 408.693L152.341 408.691Z" fill="#312A63"/>
<path d="M77 414.689H79.9296C80.1917 416.116 80.5661 417.505 81.0409 418.846L78.5052 420.309L83.4628 428.892L86.0044 427.425C86.9375 428.516 87.9545 429.533 89.0449 430.464L87.5786 433.006L96.1637 437.962L97.627 435.427C98.9674 435.902 100.356 436.276 101.785 436.538V439.467H111.698V436.538C113.126 436.276 114.516 435.902 115.856 435.427L117.319 437.962L125.904 433.006L124.438 430.464C125.53 429.531 126.547 428.515 127.479 427.425L130.02 428.892L134.978 420.309L132.442 418.846C132.917 417.505 133.291 416.117 133.553 414.689H136.483V404.777H133.553C133.291 403.35 132.917 401.96 132.442 400.62L134.978 399.157L130.02 390.574L127.479 392.041C126.545 390.949 125.528 389.933 124.438 389.001L125.904 386.462L117.319 381.505L115.856 384.04C114.516 383.565 113.127 383.191 111.698 382.929V380H101.785V382.929C100.357 383.191 98.9674 383.565 97.627 384.04L96.1637 381.505L87.5786 386.462L89.0449 389.001C87.953 389.934 86.936 390.951 86.0044 392.041L83.4628 390.574L78.5052 399.157L81.0409 400.62C80.5661 401.96 80.1917 403.348 79.9296 404.777H77V414.689ZM107.28 393.315C115.881 393.589 122.888 400.595 123.162 409.194C123.465 418.691 115.703 426.453 106.205 426.149C97.603 425.875 90.5965 418.87 90.3224 410.27C90.0199 400.773 97.7812 393.011 107.28 393.315Z" fill="#8646EE"/>
<path d="M106.741 431.565C96.7925 431.565 88.0996 424.849 85.6028 415.234C85.5819 415.155 85.6298 415.072 85.7107 415.052C85.7915 415.031 85.8724 415.078 85.8934 415.159C88.3557 424.643 96.9288 431.266 106.741 431.266C118.616 431.266 128.277 421.606 128.277 409.733C128.277 399.16 120.404 390.006 109.965 388.44C109.883 388.428 109.827 388.352 109.839 388.269C109.851 388.187 109.928 388.132 110.01 388.144C115.126 388.912 119.823 391.498 123.234 395.424C126.679 399.391 128.576 404.472 128.576 409.733C128.576 421.771 118.781 431.565 106.741 431.565Z" fill="#312A63"/>
<path d="M434.334 275.116L338.477 237.267L308.645 312.792L404.503 350.641L434.334 275.116Z" fill="#D87355"/>
<path d="M434.335 275.192L338.479 237.345L349.015 200.041L444.873 237.888L434.335 275.192Z" fill="#E2A18D"/>
<path d="M406.614 351.715C406.585 351.715 406.553 351.71 406.523 351.697L310.665 313.85C310.604 313.826 310.555 313.779 310.53 313.72C310.503 313.662 310.503 313.593 310.528 313.532L340.41 238.028C340.459 237.903 340.601 237.842 340.728 237.891L436.587 275.738C436.648 275.763 436.697 275.809 436.721 275.868C436.748 275.927 436.748 275.995 436.724 276.056L406.842 351.56C406.803 351.656 406.712 351.715 406.614 351.715ZM311.074 313.485L406.477 351.154L436.178 276.105L340.775 238.437L311.074 313.485Z" fill="#363E44"/>
<path d="M436.468 276.279C436.439 276.279 436.407 276.275 436.378 276.262L340.519 238.415C340.402 238.368 340.34 238.241 340.375 238.121L350.911 200.817C350.93 200.751 350.975 200.695 351.038 200.665C351.099 200.634 351.173 200.631 351.236 200.658L447.095 238.506C447.213 238.552 447.274 238.679 447.239 238.799L436.703 276.103C436.684 276.169 436.64 276.226 436.576 276.255C436.542 276.272 436.505 276.279 436.468 276.279ZM340.906 238.04L436.307 275.707L446.711 238.875L351.31 201.209L340.906 238.04Z" fill="#363E44"/>
<path d="M427.949 265.157L351.302 234.894L357.722 211.76L434.367 242.023L427.949 265.157Z" fill="#F7F1EB"/>
<path d="M351.303 270.967L337.171 265.387L333.608 274.409L347.739 279.988L351.303 270.967Z" fill="#F2E6DC"/>
<path d="M373.239 279.629L359.108 274.05L355.545 283.071L369.676 288.65L373.239 279.629Z" fill="#F2E6DC"/>
<path d="M395.175 288.289L381.043 282.71L377.48 291.731L391.611 297.311L395.175 288.289Z" fill="#F2E6DC"/>
<path d="M344.798 287.401L330.667 281.822L327.104 290.843L341.235 296.423L344.798 287.401Z" fill="#F2E6DC"/>
<path d="M366.734 296.063L352.603 290.484L349.039 299.505L363.17 305.085L366.734 296.063Z" fill="#F2E6DC"/>
<path d="M388.67 304.723L374.539 299.144L370.976 308.165L385.107 313.745L388.67 304.723Z" fill="#F2E6DC"/>
<path d="M338.441 303.466L324.31 297.887L320.746 306.908L334.877 312.488L338.441 303.466Z" fill="#F2E6DC"/>
<path d="M360.377 312.129L346.246 306.549L342.682 315.57L356.813 321.15L360.377 312.129Z" fill="#F2E6DC"/>
<path d="M382.311 320.791L368.18 315.212L364.617 324.233L378.748 329.813L382.311 320.791Z" fill="#F2E6DC"/>
<path d="M417.111 296.951L402.979 291.372L399.416 300.393L413.547 305.973L417.111 296.951Z" fill="white"/>
<path d="M357.805 254.535L343.674 248.955L340.11 257.977L354.242 263.556L357.805 254.535Z" fill="white"/>
<path d="M379.74 263.197L365.609 257.617L362.046 266.639L376.177 272.218L379.74 263.197Z" fill="white"/>
<path d="M401.677 271.859L387.545 266.28L383.982 275.301L398.113 280.881L401.677 271.859Z" fill="white"/>
<path d="M423.614 280.519L409.483 274.94L405.92 283.961L420.051 289.541L423.614 280.519Z" fill="white"/>
<path d="M410.608 313.386L396.477 307.807L392.913 316.828L407.044 322.408L410.608 313.386Z" fill="white"/>
<path d="M404.249 329.451L390.118 323.872L386.554 332.893L400.686 338.473L404.249 329.451Z" fill="white"/>
<path d="M387.405 169.925H169.243C169.109 169.925 169 169.816 169 169.683V0.242664C169 0.109199 169.109 0 169.243 0H387.405C387.539 0 387.648 0.109199 387.648 0.242664V169.683C387.648 169.816 387.539 169.925 387.405 169.925ZM169.485 169.44H387.162V0.485328H169.485V169.44Z" fill="#363E44"/>
<path d="M395.017 14.1735H177.042V162.225H395.017V14.1735Z" fill="#312A63"/>
<path d="M395.017 162.466H176.855C176.722 162.466 176.612 162.357 176.612 162.223V7.19735C176.612 7.06388 176.722 6.95468 176.855 6.95468H395.017C395.151 6.95468 395.26 7.06388 395.26 7.19735V162.223C395.26 162.357 395.151 162.466 395.017 162.466ZM177.098 161.98H394.775V7.44001H177.098V161.98Z" fill="#4D448C"/>
<path d="M395.017 7.19728H176.854V20.9539H395.017V7.19728Z" fill="#4D448C"/>
<path d="M185.997 17.3023C187.725 17.3023 189.125 15.9019 189.125 14.1744C189.125 12.4469 187.725 11.0464 185.997 11.0464C184.269 11.0464 182.868 12.4469 182.868 14.1744C182.868 15.9019 184.269 17.3023 185.997 17.3023Z" fill="#312A63"/>
<path d="M196.104 17.3023C197.831 17.3023 199.232 15.9019 199.232 14.1744C199.232 12.4469 197.831 11.0464 196.104 11.0464C194.376 11.0464 192.975 12.4469 192.975 14.1744C192.975 15.9019 194.376 17.3023 196.104 17.3023Z" fill="#312A63"/>
<path d="M206.206 17.3023C207.934 17.3023 209.335 15.9019 209.335 14.1744C209.335 12.4469 207.934 11.0464 206.206 11.0464C204.478 11.0464 203.078 12.4469 203.078 14.1744C203.078 15.9019 204.478 17.3023 206.206 17.3023Z" fill="#312A63"/>
<rect x="196.352" y="43.8651" width="70.3779" height="57.4918" rx="6" fill="white"/>
<rect x="290.518" y="43.8651" width="70.3779" height="57.4918" rx="6" fill="white"/>
<path d="M219.192 69.1309L205.542 83.7222C205.369 83.9074 205.272 84.1517 205.272 84.4053V89.9492C205.272 90.5015 205.72 90.9492 206.272 90.9492H252.348C252.9 90.9492 253.348 90.5015 253.348 89.9492V55.7162C253.348 54.7164 252.042 54.3354 251.505 55.1781L238.912 74.9064C238.659 75.3026 238.165 75.4692 237.723 75.3067L220.268 68.8757C219.891 68.7367 219.467 68.8372 219.192 69.1309Z" fill="url(#paint0_linear_76_176)" stroke="#8646EE"/>
<path fill-rule="evenodd" clip-rule="evenodd" d="M320.579 58.2382C319.434 56.2557 316.572 56.2557 315.428 58.2382L300.834 83.5147C299.69 85.4972 301.121 87.9753 303.41 87.9753H332.597C332.614 87.9753 332.632 87.9752 332.65 87.9749H347.269C349.559 87.9749 350.989 85.4968 349.845 83.5143L340.402 67.1589C339.257 65.1764 336.396 65.1764 335.251 67.1589L330.49 75.4054L320.579 58.2382Z" fill="#8646EE"/>
<defs>
<linearGradient id="paint0_linear_76_176" x1="229.31" y1="52.2909" x2="229.31" y2="90.9492" gradientUnits="userSpaceOnUse">
<stop stop-color="#8646EE"/>
<stop offset="1" stop-color="#D9D9D9" stop-opacity="0"/>
</linearGradient>
</defs>
</svg>
