<svg width="167" height="38" viewBox="0 0 167 38" fill="none" xmlns="http://www.w3.org/2000/svg">
<circle cx="17.2727" cy="17.2727" r="17.2727" fill="#8646EE"/>
<path d="M66.5762 4.47732V30.1793H62.1862V11.8575L54.0553 24.7819H53.5209L45.3899 11.8207V30.1793H41V4.47732H45.7335L53.7881 17.3283L61.8809 4.47732H66.5762Z" fill="white"/>
<path d="M86.7535 11.8207H90.8763V30.1793H86.7535V27.5356C85.2011 29.6163 82.9744 30.6566 80.0732 30.6566C77.4519 30.6566 75.2124 29.7264 73.3547 27.8661C71.4969 25.9813 70.568 23.6926 70.568 21C70.568 18.2829 71.4969 15.9942 73.3547 14.1339C75.2124 12.2736 77.4519 11.3434 80.0732 11.3434C82.9744 11.3434 85.2011 12.3715 86.7535 14.4276V11.8207ZM76.4085 25.2225C77.5537 26.324 78.9916 26.8747 80.7221 26.8747C82.4527 26.8747 83.8905 26.324 85.0357 25.2225C86.1809 24.0965 86.7535 22.689 86.7535 21C86.7535 19.311 86.1809 17.9158 85.0357 16.8143C83.8905 15.6883 82.4527 15.1253 80.7221 15.1253C78.9916 15.1253 77.5537 15.6883 76.4085 16.8143C75.2633 17.9158 74.6907 19.311 74.6907 21C74.6907 22.689 75.2633 24.0965 76.4085 25.2225Z" fill="white"/>
<path d="M110.875 11.8207H114.921V29.3348C114.921 32.1253 113.967 34.2671 112.058 35.7603C110.149 37.2534 107.833 38 105.11 38C100.708 38 97.6921 36.5191 96.0634 33.5572L99.6135 31.5745C100.606 33.4593 102.464 34.4017 105.187 34.4017C106.968 34.4017 108.355 33.9489 109.348 33.0432C110.366 32.162 110.875 30.9258 110.875 29.3348V27.095C109.322 29.2246 107.108 30.2894 104.232 30.2894C101.535 30.2894 99.2572 29.3715 97.3994 27.5356C95.5417 25.6753 94.6128 23.4356 94.6128 20.8164C94.6128 18.1973 95.5417 15.9698 97.3994 14.1339C99.2572 12.2736 101.535 11.3434 104.232 11.3434C107.108 11.3434 109.322 12.4082 110.875 14.5378V11.8207ZM100.453 24.9287C101.624 26.0302 103.075 26.581 104.805 26.581C106.536 26.581 107.973 26.0302 109.119 24.9287C110.289 23.8272 110.875 22.4564 110.875 20.8164C110.875 19.1764 110.289 17.8056 109.119 16.7041C107.973 15.6026 106.536 15.0518 104.805 15.0518C103.075 15.0518 101.624 15.6026 100.453 16.7041C99.3081 17.8056 98.7355 19.1764 98.7355 20.8164C98.7355 22.4564 99.3081 23.8272 100.453 24.9287Z" fill="white"/>
<path d="M123.62 8.33261C123.111 8.82217 122.5 9.06695 121.788 9.06695C121.075 9.06695 120.452 8.82217 119.917 8.33261C119.408 7.81857 119.154 7.21886 119.154 6.53348C119.154 5.84809 119.408 5.26062 119.917 4.77106C120.426 4.25702 121.05 4 121.788 4C122.526 4 123.149 4.25702 123.658 4.77106C124.167 5.26062 124.422 5.84809 124.422 6.53348C124.422 7.21886 124.155 7.81857 123.62 8.33261ZM119.726 30.1793V11.8207H123.849V30.1793H119.726Z" fill="white"/>
<path d="M137.645 30.6566C134.769 30.6566 132.364 29.7264 130.43 27.8661C128.522 26.0058 127.567 23.7171 127.567 21C127.567 18.2585 128.522 15.9698 130.43 14.1339C132.364 12.2736 134.769 11.3434 137.645 11.3434C139.503 11.3434 141.195 11.7718 142.722 12.6285C144.249 13.4852 145.394 14.6357 146.158 16.0799L142.607 18.0626C142.175 17.1814 141.513 16.496 140.622 16.0065C139.757 15.4924 138.752 15.2354 137.607 15.2354C135.927 15.2354 134.515 15.7862 133.37 16.8877C132.25 17.9892 131.69 19.36 131.69 21C131.69 22.64 132.25 24.0108 133.37 25.1123C134.515 26.2138 135.927 26.7646 137.607 26.7646C138.727 26.7646 139.732 26.5076 140.622 25.9935C141.539 25.4795 142.226 24.7941 142.684 23.9374L146.234 25.8834C145.42 27.3521 144.249 28.5148 142.722 29.3715C141.195 30.2282 139.503 30.6566 137.645 30.6566Z" fill="white"/>
<path d="M163.068 16.8143C165.689 18.2095 167 20.2901 167 23.0562C167 25.406 166.147 27.2664 164.442 28.6371C162.737 29.9834 160.472 30.6566 157.648 30.6566C154.823 30.6566 152.545 29.9834 150.814 28.6371C149.109 27.2664 148.257 25.406 148.257 23.0562C148.257 21.7343 148.6 20.5349 149.288 19.4579C149.975 18.3564 150.942 17.4752 152.189 16.8143C150.178 15.5414 149.173 13.73 149.173 11.3801C149.173 9.03024 149.987 7.21886 151.616 5.94601C153.245 4.64867 155.255 4 157.648 4C160.014 4 162.012 4.64867 163.641 5.94601C165.295 7.21886 166.122 9.03024 166.122 11.3801C166.122 13.73 165.104 15.5414 163.068 16.8143ZM157.648 8.00216C156.451 8.00216 155.472 8.30814 154.708 8.92009C153.945 9.53204 153.563 10.4132 153.563 11.5637C153.563 12.6652 153.945 13.5342 154.708 14.1706C155.497 14.8071 156.477 15.1253 157.648 15.1253C158.793 15.1253 159.76 14.8071 160.549 14.1706C161.338 13.5342 161.732 12.6652 161.732 11.5637C161.732 10.4132 161.338 9.53204 160.549 8.92009C159.785 8.30814 158.818 8.00216 157.648 8.00216ZM157.648 26.6544C159.124 26.6544 160.32 26.3117 161.236 25.6263C162.152 24.9165 162.61 23.9251 162.61 22.6523C162.61 21.3794 162.152 20.4003 161.236 19.7149C160.32 19.005 159.124 18.6501 157.648 18.6501C156.146 18.6501 154.937 19.005 154.021 19.7149C153.105 20.4003 152.647 21.3794 152.647 22.6523C152.647 23.9251 153.105 24.9165 154.021 25.6263C154.937 26.3117 156.146 26.6544 157.648 26.6544Z" fill="white"/>
<path fill-rule="evenodd" clip-rule="evenodd" d="M28.79 31.7984L28.5164 31.7004L28.3289 31.9017C27.262 33.0474 25.7371 34.0203 23.8829 34.7216C22.0294 35.4228 19.9152 35.8265 17.7349 35.8921C15.5547 35.9576 13.3856 35.6827 11.4278 35.0951C9.46941 34.5072 7.79396 33.628 6.54755 32.5469L6.34269 32.3692L6.08599 32.4829C5.58038 32.707 5.20832 33.0651 5.10697 33.4944C5.00105 33.943 5.2117 34.381 5.67386 34.691C7.00017 35.5804 8.58083 36.3072 10.3355 36.8338C12.3929 37.4514 14.6372 37.7782 16.9091 37.7958C17.0941 37.7975 17.2793 37.7969 17.4645 37.794C17.5947 37.7921 17.7248 37.7892 17.855 37.7853C20.447 37.7073 22.9707 37.2274 25.1958 36.3857C26.8625 35.7553 28.3258 34.9354 29.5107 33.9675C29.9369 33.6194 30.0731 33.1607 29.9001 32.7266C29.7361 32.3154 29.3208 31.9884 28.79 31.7984Z" fill="#8646EE"/>
<circle cx="17.2727" cy="17.2727" r="17.2727" fill="url(#paint0_linear_108_861)"/>
<path fill-rule="evenodd" clip-rule="evenodd" d="M23.8376 33.41C28.1861 29.8696 30.9602 24.4964 30.9602 18.4804C30.9602 9.99905 25.4464 2.79513 17.7805 0.203369C27.0971 0.541525 34.5453 8.14013 34.5453 17.4644C34.5453 24.6467 30.126 30.8051 23.8376 33.41Z" fill="#8643F2"/>
<circle cx="14.3938" cy="19" r="9.28788" fill="white" stroke="#9356F6"/>
<path d="M16.818 18.502L16.818 18.502L16.8196 18.4998C17.0956 18.1129 17.2313 17.6656 17.2313 17.1676C17.2313 16.7034 17.1089 16.2798 16.862 15.9041C16.6204 15.5167 16.2627 15.2202 15.8036 15.0097C15.3454 14.7883 14.8002 14.6833 14.1772 14.6833C13.5533 14.6833 13.0044 14.7886 12.5391 15.0097C12.0861 15.2209 11.7324 15.5183 11.4914 15.9058C11.2527 16.2817 11.1349 16.7046 11.1349 17.1676C11.1349 17.6771 11.2647 18.1262 11.5358 18.5011C11.6996 18.7276 11.9049 18.9183 12.1483 19.0745C11.8533 19.2336 11.6021 19.4473 11.3979 19.7162C11.0784 20.1369 10.9229 20.6377 10.9229 21.2057C10.9229 21.7535 11.0601 22.2448 11.3413 22.6702L11.3413 22.6702L11.3427 22.6721C11.6218 23.0857 12.0081 23.4048 12.4925 23.6315L12.4925 23.6315L12.4972 23.6336C12.9904 23.852 13.5522 23.9576 14.1772 23.9576C14.8022 23.9576 15.3641 23.852 15.8572 23.6336L15.8572 23.6336L15.859 23.6329C16.3589 23.4069 16.7548 23.0878 17.0353 22.6721L17.0354 22.6721L17.0367 22.6702C17.3179 22.2448 17.4551 21.7535 17.4551 21.2057C17.4551 20.6372 17.2953 20.1391 16.9666 19.7255C16.7608 19.4552 16.5074 19.2392 16.2098 19.0769C16.4478 18.9218 16.6513 18.7304 16.818 18.502ZM15.3153 16.3956L15.4732 16.2018L15.3153 16.3956C15.5611 16.5959 15.6945 16.8835 15.6945 17.2956C15.6945 17.6567 15.5619 17.9383 15.291 18.1614C15.0244 18.3796 14.6612 18.5003 14.1772 18.5003C13.7029 18.5003 13.3381 18.3805 13.0621 18.1603C12.8016 17.9465 12.6717 17.67 12.6717 17.3073C12.6717 16.8858 12.8061 16.5951 13.0509 16.3956C13.3074 16.1865 13.6733 16.0678 14.1772 16.0678C14.69 16.0678 15.0594 16.187 15.3153 16.3956ZM12.897 20.1756L12.897 20.1756L12.8997 20.1735C13.2157 19.9412 13.6349 19.8149 14.1772 19.8149C14.7271 19.8149 15.1437 19.9449 15.4499 20.1816L15.4499 20.1816L15.4526 20.1836C15.7411 20.4004 15.8948 20.7161 15.8948 21.1707C15.8948 21.5998 15.7459 21.9279 15.452 22.1794C15.156 22.4328 14.7406 22.5732 14.1772 22.5732C13.6148 22.5732 13.1943 22.4333 12.8896 22.1786C12.5964 21.9271 12.4479 21.5993 12.4479 21.1707C12.4479 20.6996 12.6059 20.3835 12.897 20.1756Z" fill="#8646EE" stroke="#8646EE" stroke-width="0.5"/>
<path d="M11.515 4.03027L11.8261 4.87077L12.6666 5.18179L11.8261 5.4928L11.515 6.3333L11.204 5.4928L10.3635 5.18179L11.204 4.87077L11.515 4.03027Z" fill="white"/>
<path d="M27.6363 21.303L27.7918 21.7232L28.2121 21.8787L27.7918 22.0342L27.6363 22.4545L27.4808 22.0342L27.0605 21.8787L27.4808 21.7232L27.6363 21.303Z" fill="white"/>
<circle cx="122" cy="7" r="3" fill="#8646EE"/>
<defs>
<linearGradient id="paint0_linear_108_861" x1="-1.19252e-08" y1="19.7917" x2="50.3788" y2="19.4318" gradientUnits="userSpaceOnUse">
<stop stop-color="#AB78FF"/>
<stop offset="1" stop-color="#9554FF" stop-opacity="0"/>
</linearGradient>
</defs>
</svg>
