<svg width="1170" height="374" viewBox="0 0 1170 374" fill="none" xmlns="http://www.w3.org/2000/svg">
<mask id="mask0_108_970" style="mask-type:alpha" maskUnits="userSpaceOnUse" x="0" y="0" width="1170" height="374">
<rect width="1170" height="374" fill="#081327"/>
</mask>
<g mask="url(#mask0_108_970)">
<path d="M387.281 -45.3708C390.392 -51.2917 396.528 -55 403.217 -55H590.948C603.537 -55 612.237 -42.4075 607.784 -30.6323L571.475 65.3677C568.827 72.3683 562.124 77 554.639 77H352.788C339.249 77 330.556 62.6151 336.853 50.6292L387.281 -45.3708Z" fill="#4ADDFD"/>
<path d="M740.82 323.193C743.819 316.962 750.123 313 757.039 313H910.711C923.087 313 931.771 325.201 927.719 336.894L897.913 422.895C895.401 430.141 888.574 435 880.905 435H715.641C702.378 435 693.67 421.143 699.423 409.193L740.82 323.193Z" fill="#FFC045"/>
</g>
</svg>
