<svg width="460" height="460" viewBox="0 0 460 460" fill="none" xmlns="http://www.w3.org/2000/svg">
<path d="M229.303 460C355.944 460 458.607 357.025 458.607 230C458.607 102.975 355.944 0 229.303 0C102.663 0 0 102.975 0 230C0 357.025 102.663 460 229.303 460Z" fill="#F5EFFF"/>
<path d="M69.7939 283.89L422.956 283.89L422.956 32.6976L69.7939 32.6976L69.7939 283.89Z" fill="white"/>
<path d="M411.877 251.245V43.8105L80.8732 43.8105V251.245L411.877 251.245Z" fill="#312A63"/>
<path d="M209.197 289.212H219.652C219.652 297.079 226.01 303.457 233.854 303.457H258.892C266.736 303.457 273.094 297.079 273.094 289.212H283.549L294.004 344.945V349.605H198.742V344.945L209.197 289.212Z" fill="white"/>
<path d="M294.005 355.984H198.742C198.437 355.984 198.191 355.736 198.191 355.431C198.191 355.127 198.439 354.878 198.742 354.878H294.005C294.31 354.878 294.556 355.127 294.556 355.431C294.556 355.736 294.308 355.984 294.005 355.984Z" fill="white"/>
<path d="M307.701 149.606H93.0508V236.058H307.701V149.606Z" fill="white"/>
<path d="M399.694 149.606H320.124V236.058H399.694V149.606Z" fill="white"/>
<path d="M399.694 140.184H93.0511C92.7454 140.184 92.4998 139.936 92.4998 139.631V58.9957C92.4998 58.689 92.7479 58.4427 93.0511 58.4427H399.694C399.999 58.4427 400.245 58.6915 400.245 58.9957V139.631C400.245 139.938 399.997 140.184 399.694 140.184ZM93.6024 139.076H399.142V59.5487H93.6024V139.076Z" fill="white"/>
<path d="M384.065 75.7494H315.605C315.299 75.7494 315.054 75.5006 315.054 75.1964C315.054 74.8922 315.302 74.6434 315.605 74.6434H384.065C384.371 74.6434 384.617 74.8922 384.617 75.1964C384.617 75.5006 384.368 75.7494 384.065 75.7494Z" fill="white"/>
<path d="M384.066 86.6915H304.055C303.75 86.6915 303.504 86.4426 303.504 86.1385C303.504 85.8343 303.752 85.5855 304.055 85.5855H384.066C384.372 85.5855 384.617 85.8343 384.617 86.1385C384.617 86.4426 384.369 86.6915 384.066 86.6915Z" fill="white"/>
<path d="M384.066 97.6308H304.055C303.75 97.6308 303.504 97.3819 303.504 97.0778C303.504 96.7736 303.752 96.5247 304.055 96.5247H384.066C384.372 96.5247 384.617 96.7736 384.617 97.0778C384.617 97.3819 384.369 97.6308 384.066 97.6308Z" fill="white"/>
<path d="M368.673 195.26C370.014 190.4 367.175 185.37 362.33 184.024C357.486 182.679 352.471 185.527 351.129 190.386C349.787 195.245 352.627 200.276 357.471 201.621C362.316 202.967 367.331 200.119 368.673 195.26Z" fill="white"/>
<path d="M450.349 417.381H318.919V168.677H348.538C351.054 176.758 358.144 182.21 366.131 182.21H403.14C411.122 182.21 418.207 176.763 420.728 168.692L420.733 168.677H450.352V417.381H450.349Z" fill="#312A63"/>
<path d="M445.493 432.621H322.867C314.868 432.621 308.359 426.093 308.359 418.07V165.625C308.359 157.601 314.868 151.074 322.867 151.074H445.493C453.492 151.074 460 157.601 460 165.625V418.07C460 426.093 453.492 432.621 445.493 432.621ZM322.867 152.182C315.477 152.182 309.465 158.212 309.465 165.625V418.07C309.465 425.482 315.477 431.513 322.867 431.513H445.493C452.883 431.513 458.895 425.482 458.895 418.07V165.625C458.895 158.212 452.883 152.182 445.493 152.182H322.867Z" fill="#D3BBA3"/>
<path d="M443.661 345.478H324.699C324.393 345.478 324.147 345.229 324.147 344.925V252.389C324.147 252.083 324.396 251.836 324.699 251.836H443.661C443.967 251.836 444.212 252.085 444.212 252.389V344.925C444.212 345.231 443.964 345.478 443.661 345.478ZM325.25 344.369H443.107V252.942H325.25V344.369Z" fill="white"/>
<path d="M443.66 191.702H324.698V245.718H443.66V191.702Z" fill="white"/>
<path d="M443.66 351.593H324.698V405.609H443.66V351.593Z" fill="white"/>
<path d="M431.684 266.084H378.054C377.749 266.084 377.503 265.835 377.503 265.531C377.503 265.226 377.751 264.978 378.054 264.978H431.684C431.99 264.978 432.235 265.226 432.235 265.531C432.235 265.835 431.987 266.084 431.684 266.084Z" fill="white"/>
<path d="M431.684 277.023H369.008C368.702 277.023 368.457 276.774 368.457 276.47C368.457 276.166 368.705 275.917 369.008 275.917H431.684C431.99 275.917 432.236 276.166 432.236 276.47C432.236 276.774 431.988 277.023 431.684 277.023Z" fill="white"/>
<path d="M431.684 287.965H369.008C368.702 287.965 368.457 287.716 368.457 287.412C368.457 287.108 368.705 286.859 369.008 286.859H431.684C431.99 286.859 432.236 287.108 432.236 287.412C432.236 287.716 431.988 287.965 431.684 287.965Z" fill="white"/>
<path d="M179.705 215.368C174.251 203.865 170.061 197.641 162.749 195.075C152.922 191.624 143.42 198.054 142.44 198.74C141.813 199.177 132.526 204.868 131.997 215.838C131.616 223.738 134.288 231.586 139.312 237.425C142.781 241.452 143.329 247.236 140.618 251.808L123.557 280.575C124.334 288.229 131.147 293.802 138.778 293.022L140.508 292.846C148.138 292.067 163.37 286.18 162.593 278.529L176.008 247.912C180.807 247.012 184.494 245.215 185.779 242.598C188.082 237.913 186.128 228.914 179.705 215.368Z" fill="#FFCBC6"/>
<path d="M176.185 248.068C176.153 248.068 176.12 248.066 176.085 248.058L170.191 246.982C169.89 246.927 169.692 246.638 169.747 246.339C169.802 246.037 170.088 245.838 170.389 245.894L176.283 246.97C176.584 247.025 176.782 247.314 176.727 247.613C176.679 247.88 176.446 248.068 176.183 248.068H176.185Z" fill="#363E44"/>
<path d="M166.495 231.443C166.365 231.443 166.232 231.397 166.127 231.302C165.39 230.643 164.733 230.032 164.049 229.399C163.49 228.881 162.914 228.346 162.263 227.755C162.037 227.549 162.019 227.2 162.222 226.973C162.428 226.747 162.776 226.73 163.002 226.933C163.656 227.526 164.235 228.064 164.796 228.585C165.475 229.216 166.129 229.821 166.859 230.475C167.087 230.679 167.107 231.028 166.904 231.257C166.796 231.38 166.643 231.443 166.49 231.443H166.495Z" fill="#363E44"/>
<path d="M117.677 222.584C115.67 216.524 118.94 209.981 124.982 207.968C124.992 207.965 125 207.963 125.01 207.96C124.062 206.944 123.306 205.718 122.84 204.31C121.11 199.092 123.927 193.456 129.13 191.722C130.217 191.36 131.32 191.206 132.405 191.224C131.042 186.164 133.826 180.858 138.848 179.186C141.685 178.241 144.642 178.658 147.028 180.073C147.968 176.376 150.704 173.221 154.581 171.927C160.448 169.971 166.768 172.995 168.988 178.706C169.259 178.588 169.535 178.477 169.823 178.382C175.025 176.647 180.644 179.473 182.373 184.691C184.102 189.909 181.286 195.545 176.083 197.279C175.933 197.33 175.782 197.362 175.632 197.405C177.965 206.846 168.577 211.117 168.046 211.449C170.517 215.315 172.988 219.181 175.459 223.047C174 224.03 172.289 225.312 170.83 226.295C168.462 222.157 166.159 221.003 163.548 221.368C159.435 221.943 156.954 226.694 157.831 230.631C158.631 234.225 161.059 237.47 165.006 238.343C161.097 239.713 156.967 241.032 152.619 242.266C150.351 242.91 148.123 243.501 145.94 244.044C144.366 243.614 134.189 240.64 129.075 230.497C124.072 230.699 119.336 227.594 117.68 222.592L117.677 222.584Z" fill="#363E44"/>
<path d="M76.1115 223.914C76.1115 223.914 98.3301 236.958 116.361 245.469C134.162 253.87 211.666 298.535 211.666 298.535L190.149 371.652L158.207 448.731C95.7739 428.411 43.6506 382.446 19.8457 325.142L44.227 281.268L76.1115 223.914Z" fill="#8646EE"/>
<path d="M313.878 432.95L350.723 286.79L251.987 261.749L215.142 407.908L313.878 432.95Z" fill="#6D22E6"/>
<path d="M288.822 357.263C294.278 354 296.063 346.919 292.809 341.447C289.556 335.976 282.497 334.185 277.042 337.448C271.587 340.711 269.802 347.792 273.055 353.264C276.308 358.736 283.367 360.526 288.822 357.263Z" fill="white"/>
<path d="M347.714 370.637C347.003 368.807 345.176 367.517 343.04 367.246C343.233 367.078 345.832 364.742 345.354 361.268C344.99 358.627 342.995 356.42 340.309 355.711C341.524 353.418 341.645 350.852 340.482 349.019C336.983 343.514 318.261 351.184 309.382 354.534C305.462 356.012 272.137 369.136 248.999 378.271L246.61 367.181C223.565 375.187 196.79 382.396 196.79 382.396C201.559 410.627 212.36 424.198 212.36 424.198C222.743 436.236 236.396 435.615 243.245 433.619C260.907 428.474 276.563 422.418 310.103 405.672C324.385 398.541 335.918 391.875 343.805 388.891C346.268 387.28 347.571 384.532 347.108 381.941C346.692 379.603 344.99 378.246 344.501 377.881C347.424 376.411 348.692 373.161 347.712 370.634L347.714 370.637Z" fill="#FFCBC6"/>
<path d="M234.478 384.321C234.253 384.321 234.042 384.183 233.959 383.959C233.854 383.673 233.999 383.353 234.285 383.248C238.5 381.682 247.785 378.143 256.767 374.719C265.751 371.295 275.041 367.754 279.259 366.188C279.544 366.082 279.863 366.228 279.968 366.514C280.073 366.801 279.928 367.12 279.642 367.226C275.427 368.792 266.142 372.331 257.16 375.755C248.176 379.178 238.886 382.72 234.669 384.286C234.606 384.309 234.541 384.321 234.476 384.321H234.478Z" fill="#363E44"/>
<path d="M329.009 357.116C328.771 357.116 328.553 356.963 328.48 356.721L327.27 352.715C327.182 352.42 327.348 352.111 327.638 352.023C327.929 351.935 328.24 352.099 328.327 352.393L329.538 356.4C329.626 356.694 329.46 357.003 329.169 357.091C329.117 357.106 329.062 357.116 329.009 357.116Z" fill="#363E44"/>
<path d="M332.096 367.279C331.858 367.279 331.64 367.125 331.567 366.884L330.357 362.877C330.269 362.583 330.434 362.274 330.725 362.186C331.016 362.098 331.327 362.264 331.414 362.555L332.625 366.562C332.712 366.856 332.55 367.165 332.256 367.253C332.204 367.268 332.149 367.279 332.096 367.279Z" fill="#363E44"/>
<path d="M335.352 377.592C335.114 377.592 334.896 377.439 334.824 377.197L333.613 373.191C333.525 372.896 333.691 372.587 333.981 372.499C334.275 372.411 334.583 372.577 334.671 372.869L335.881 376.876C335.969 377.17 335.803 377.479 335.513 377.567C335.46 377.582 335.405 377.592 335.352 377.592Z" fill="#363E44"/>
<path d="M338.113 387.008C337.875 387.008 337.657 386.855 337.584 386.614L336.374 382.607C336.286 382.313 336.452 382.004 336.742 381.916C337.033 381.828 337.344 381.991 337.431 382.285L338.642 386.292C338.73 386.586 338.564 386.895 338.273 386.983C338.221 386.998 338.166 387.008 338.113 387.008Z" fill="#363E44"/>
<path d="M187.736 393.865L256.968 371.159C256.968 371.159 253.712 319.534 199.459 291.235C164.966 273.245 172.221 373.454 172.221 373.454L187.736 393.863V393.865Z" fill="#8646EE"/>
<path d="M181.859 383.001C181.666 383.001 181.481 382.9 181.378 382.722L171.309 364.996C171.159 364.729 171.251 364.392 171.514 364.239C171.78 364.088 172.116 364.181 172.269 364.445L182.338 382.171C182.488 382.438 182.396 382.775 182.133 382.928C182.047 382.978 181.952 383.001 181.859 383.001Z" fill="#363E44"/>
<path d="M86.1113 183.353C86.1113 183.353 117.675 157.689 139.112 151.558C181.97 139.299 190.538 122.827 186.689 119.356C182.509 115.59 176.332 122.123 171.69 124.893C171.938 123.991 172.136 121.213 170.137 119.28C167.174 116.42 164.217 117.815 163.894 117.832C164.004 117.536 165.089 114.296 163.408 112.069C161.516 109.56 158.91 108.929 156.599 109.379C156.847 108.632 157.471 105.762 155.794 103.665C154.07 101.509 151.063 101.079 148.447 101.735C135.972 104.867 126.514 106.498 119.878 109.414C106.821 115.15 62.3014 134.407 46.0071 147.833C35.1609 159.122 46.6236 179.095 63.7975 185.674C74.6061 189.814 86.1138 183.353 86.1138 183.353H86.1113Z" fill="#FFCBC6"/>
<path d="M148.08 110.875C147.92 110.875 147.76 110.804 147.652 110.669L144.845 107.192C144.652 106.953 144.69 106.607 144.928 106.413C145.163 106.219 145.512 106.257 145.705 106.496L148.511 109.972C148.704 110.211 148.667 110.558 148.429 110.752C148.326 110.834 148.203 110.875 148.08 110.875Z" fill="#363E44"/>
<path d="M155.187 119.73C155.032 119.73 154.876 119.665 154.769 119.537L151.478 115.701C151.28 115.47 151.305 115.118 151.536 114.919C151.766 114.721 152.115 114.746 152.315 114.977L155.606 118.813C155.804 119.044 155.778 119.396 155.548 119.595C155.443 119.685 155.315 119.728 155.187 119.728V119.73Z" fill="#363E44"/>
<path d="M162.388 128.01C162.227 128.01 162.067 127.94 161.957 127.804C161.435 127.158 160.962 126.578 160.486 125.997C160.007 125.414 159.531 124.828 159.005 124.177C158.812 123.938 158.849 123.589 159.087 123.398C159.325 123.204 159.674 123.242 159.864 123.481C160.388 124.129 160.864 124.712 161.34 125.293C161.816 125.876 162.292 126.457 162.816 127.105C163.009 127.344 162.972 127.694 162.734 127.885C162.631 127.968 162.508 128.008 162.385 128.008L162.388 128.01Z" fill="#363E44"/>
<path d="M167.535 135.536C167.362 135.536 167.189 135.453 167.081 135.3L164.543 131.673C164.367 131.421 164.427 131.077 164.678 130.901C164.929 130.725 165.272 130.786 165.447 131.037L167.986 134.664C168.161 134.915 168.101 135.26 167.851 135.436C167.753 135.504 167.643 135.536 167.535 135.536Z" fill="#363E44"/>
<path d="M90.1962 172.706V233.921L33.8628 262.551C32.8002 226.237 33.1987 186.119 42.1127 155.143L90.1962 172.708V172.706Z" fill="#FFCBC6"/>
<path d="M35.116 298.633C28.8408 276.636 28.8408 233.921 28.8408 233.921L93.1335 211.049L99.7519 237.078L35.1185 298.633H35.116Z" fill="#8646EE"/>
<path d="M35.1138 299.186C34.9985 299.186 34.8832 299.151 34.7855 299.078C34.5399 298.897 34.4873 298.55 34.6702 298.304L54.5432 271.372C54.7236 271.126 55.0694 271.073 55.315 271.257C55.5606 271.438 55.6133 271.784 55.4303 272.031L35.5574 298.962C35.4496 299.108 35.2817 299.186 35.1138 299.186Z" fill="#363E44"/>
</svg>
